<svg width="15" height="11" viewBox="0 0 15 11" fill="none" xmlns="http://www.w3.org/2000/svg">
  <path d="M3.4999 0.5C3.4999 0.367392 3.44722 0.240215 3.35345 0.146447C3.25968 0.0526785 3.13251 0 2.9999 0C2.86729 0 2.74011 0.0526785 2.64635 0.146447C2.55258 0.240215 2.4999 0.367392 2.4999 0.5V9.293L1.3539 8.146C1.30741 8.09951 1.25222 8.06264 1.19148 8.03748C1.13074 8.01232 1.06564 7.99937 0.999899 7.99937C0.934155 7.99937 0.869055 8.01232 0.808316 8.03748C0.747576 8.06264 0.692387 8.09951 0.645899 8.146C0.599411 8.19249 0.562535 8.24768 0.537376 8.30842C0.512217 8.36916 0.499268 8.43426 0.499268 8.5C0.499268 8.56574 0.512217 8.63084 0.537376 8.69158C0.562535 8.75232 0.599411 8.80751 0.645899 8.854L2.6459 10.853L2.6529 10.86C2.74678 10.9515 2.87302 11.0023 3.00413 11.0011C3.13525 11 3.26061 10.9471 3.3529 10.854L5.3529 8.854C5.44679 8.76025 5.49958 8.63304 5.49968 8.50035C5.49977 8.36767 5.44715 8.24039 5.3534 8.1465C5.25965 8.05261 5.13243 7.99982 4.99975 7.99972C4.86707 7.99963 4.73979 8.05225 4.6459 8.146L3.4999 9.293V0.5ZM7.4999 1C7.36729 1 7.24011 0.947321 7.14635 0.853553C7.05258 0.759785 6.9999 0.632608 6.9999 0.5C6.9999 0.367392 7.05258 0.240215 7.14635 0.146447C7.24011 0.0526785 7.36729 0 7.4999 0H8.4999C8.63251 0 8.75968 0.0526785 8.85345 0.146447C8.94722 0.240215 8.9999 0.367392 8.9999 0.5C8.9999 0.632608 8.94722 0.759785 8.85345 0.853553C8.75968 0.947321 8.63251 1 8.4999 1H7.4999ZM7.4999 4C7.36729 4 7.24011 3.94732 7.14635 3.85355C7.05258 3.75979 6.9999 3.63261 6.9999 3.5C6.9999 3.36739 7.05258 3.24021 7.14635 3.14645C7.24011 3.05268 7.36729 3 7.4999 3H10.4999C10.6325 3 10.7597 3.05268 10.8535 3.14645C10.9472 3.24021 10.9999 3.36739 10.9999 3.5C10.9999 3.63261 10.9472 3.75979 10.8535 3.85355C10.7597 3.94732 10.6325 4 10.4999 4H7.4999ZM7.4999 7C7.36729 7 7.24011 6.94732 7.14635 6.85355C7.05258 6.75979 6.9999 6.63261 6.9999 6.5C6.9999 6.36739 7.05258 6.24021 7.14635 6.14645C7.24011 6.05268 7.36729 6 7.4999 6H12.4999C12.6325 6 12.7597 6.05268 12.8535 6.14645C12.9472 6.24021 12.9999 6.36739 12.9999 6.5C12.9999 6.63261 12.9472 6.75979 12.8535 6.85355C12.7597 6.94732 12.6325 7 12.4999 7H7.4999ZM6.9999 9.5C6.9999 9.63261 7.05258 9.75979 7.14635 9.85355C7.24011 9.94732 7.36729 10 7.4999 10H14.4999C14.6325 10 14.7597 9.94732 14.8535 9.85355C14.9472 9.75979 14.9999 9.63261 14.9999 9.5C14.9999 9.36739 14.9472 9.24021 14.8535 9.14645C14.7597 9.05268 14.6325 9 14.4999 9H7.4999C7.36729 9 7.24011 9.05268 7.14635 9.14645C7.05258 9.24021 6.9999 9.36739 6.9999 9.5Z" fill="white"/>
</svg>