<svg width="15" height="11" viewBox="0 0 15 11" fill="none" xmlns="http://www.w3.org/2000/svg">
  <path d="M3.4999 10.4998C3.4999 10.6324 3.44722 10.7596 3.35345 10.8533C3.25968 10.9471 3.13251 10.9998 2.9999 10.9998C2.86729 10.9998 2.74011 10.9471 2.64635 10.8533C2.55258 10.7596 2.4999 10.6324 2.4999 10.4998V1.70678L1.3539 2.85378C1.30741 2.90027 1.25222 2.93715 1.19148 2.96231C1.13074 2.98747 1.06564 3.00042 0.999899 3.00042C0.934155 3.00042 0.869055 2.98747 0.808316 2.96231C0.747576 2.93715 0.692387 2.90027 0.645899 2.85378C0.599411 2.8073 0.562535 2.75211 0.537376 2.69137C0.512217 2.63063 0.499268 2.56553 0.499268 2.49978C0.499268 2.43404 0.512217 2.36894 0.537376 2.3082C0.562535 2.24746 0.599411 2.19227 0.645899 2.14578L2.6459 0.146784L2.6529 0.139784C2.7469 0.0484869 2.8731 -0.0020814 3.00413 -0.000958246C3.13517 0.000164907 3.26048 0.0528888 3.3529 0.145784L5.3529 2.14578C5.39939 2.19221 5.43628 2.24733 5.46146 2.30801C5.48664 2.36869 5.49963 2.43373 5.49968 2.49943C5.49972 2.56513 5.48683 2.63019 5.46173 2.69091C5.43663 2.75162 5.39982 2.8068 5.3534 2.85328C5.30698 2.89977 5.25185 2.93666 5.19117 2.96185C5.1305 2.98703 5.06545 3.00002 4.99975 3.00006C4.93406 3.00011 4.86899 2.98721 4.80828 2.96212C4.74756 2.93702 4.69239 2.90021 4.6459 2.85378L3.4999 1.70678V10.4998ZM6.9999 1.49978C6.9999 1.36718 7.05258 1.24 7.14635 1.14623C7.24011 1.05246 7.36729 0.999784 7.4999 0.999784H14.4999C14.6325 0.999784 14.7597 1.05246 14.8535 1.14623C14.9472 1.24 14.9999 1.36718 14.9999 1.49978C14.9999 1.63239 14.9472 1.75957 14.8535 1.85334C14.7597 1.94711 14.6325 1.99978 14.4999 1.99978H7.4999C7.36729 1.99978 7.24011 1.94711 7.14635 1.85334C7.05258 1.75957 6.9999 1.63239 6.9999 1.49978ZM7.4999 3.99978C7.36729 3.99978 7.24011 4.05246 7.14635 4.14623C7.05258 4.24 6.9999 4.36718 6.9999 4.49978C6.9999 4.63239 7.05258 4.75957 7.14635 4.85334C7.24011 4.9471 7.36729 4.99978 7.4999 4.99978H12.4999C12.6325 4.99978 12.7597 4.9471 12.8535 4.85334C12.9472 4.75957 12.9999 4.63239 12.9999 4.49978C12.9999 4.36718 12.9472 4.24 12.8535 4.14623C12.7597 4.05246 12.6325 3.99978 12.4999 3.99978H7.4999ZM7.4999 6.99978C7.36729 6.99978 7.24011 7.05246 7.14635 7.14623C7.05258 7.24 6.9999 7.36718 6.9999 7.49978C6.9999 7.63239 7.05258 7.75957 7.14635 7.85334C7.24011 7.94711 7.36729 7.99978 7.4999 7.99978H10.4999C10.6325 7.99978 10.7597 7.94711 10.8535 7.85334C10.9472 7.75957 10.9999 7.63239 10.9999 7.49978C10.9999 7.36718 10.9472 7.24 10.8535 7.14623C10.7597 7.05246 10.6325 6.99978 10.4999 6.99978H7.4999ZM7.4999 9.99978C7.36729 9.99978 7.24011 10.0525 7.14635 10.1462C7.05258 10.24 6.9999 10.3672 6.9999 10.4998C6.9999 10.6324 7.05258 10.7596 7.14635 10.8533C7.24011 10.9471 7.36729 10.9998 7.4999 10.9998H8.4999C8.63251 10.9998 8.75968 10.9471 8.85345 10.8533C8.94722 10.7596 8.9999 10.6324 8.9999 10.4998C8.9999 10.3672 8.94722 10.24 8.85345 10.1462C8.75968 10.0525 8.63251 9.99978 8.4999 9.99978H7.4999Z" fill="white"/>
</svg>
